<svg width="64" height="64" viewBox="0 0 64 64" xmlns="http://www.w3.org/2000/svg"><defs><clipPath id="s36"><path d="M17 5 H40 L53 18 V56 Q53 59 50 59 H17 Q14 59 14 56 V8 Q14 5 17 5 Z"/></clipPath></defs><path d="M17 5 H40 L53 18 V56 Q53 59 50 59 H17 Q14 59 14 56 V8 Q14 5 17 5 Z" fill="#fff9f5" stroke="#d1b099" stroke-width="1.1"/><path d="M40 5 V15 Q40 18 43 18 H53 Z" fill="#edd1bf" stroke="#d1b099" stroke-width="1.1" stroke-linejoin="round"/><g transform="translate(33.5 30) scale(.5) translate(-32 -32)"><circle cx="18.8" cy="45.2" r="6.6" fill="#ac5701"/>
<circle cx="16.5" cy="42.7" r="2" fill="#e79e6b"/>
<circle cx="32" cy="45.2" r="6.6" fill="#1f74bf"/>
<circle cx="29.7" cy="42.7" r="2" fill="#e79e6b"/>
<circle cx="45.2" cy="45.2" r="6.6" fill="#ac5701"/>
<circle cx="42.9" cy="42.7" r="2" fill="#e79e6b"/>
<circle cx="25.4" cy="33.8" r="6.6" fill="#1f74bf"/>
<circle cx="23.1" cy="31.3" r="2" fill="#e79e6b"/>
<circle cx="38.6" cy="33.8" r="6.6" fill="#ac5701"/>
<circle cx="36.3" cy="31.3" r="2" fill="#e79e6b"/>
<circle cx="32" cy="22.4" r="6.6" fill="#ac5701"/>
<circle cx="29.7" cy="19.9" r="2" fill="#e79e6b"/></g><rect x="14" y="44" width="39" height="15" fill="#ac5701" clip-path="url(#s36)"/><text x="33.5" y="54.6" text-anchor="middle" font-family="IBM Plex Mono, ui-monospace, monospace" font-weight="600" font-size="8.2" letter-spacing=".3" fill="#fefbf9">RIG</text></svg>
